<svg xmlns="http://www.w3.org/2000/svg" id="Group_1_1_" viewBox="0 0 967 441"><style>.st0{fill-rule:evenodd;clip-rule:evenodd;fill:url(#SVGID_1_)}.st1{fill:#ef46d2}</style><g id="Векторный_смарт-объект_xA0_Image_1_"><linearGradient id="SVGID_1_" gradientUnits="userSpaceOnUse" x1="18.617" y1="402.736" x2="583.043" y2="76.865"><stop offset="0" stop-color="#0096ff"/><stop offset="1" stop-color="#f644d1"/></linearGradient><path class="st0" d="M539.3 137.8L578 170l-38.7 45v136.4l-60.5 10.9v75.5L339.1 387 40 439.8V302.4l-38.3-32L40 225.8V89.5L539.3 1.2v136.6zm-20.1 197V209.4l30.3-35.2-30.3-25.3V25l-459 81.2v125.1l-30.1 35 30.1 25.2V416l281.2-49.6 117.3 42.7v-63.4l60.5-10.9zm-359.4-2.5v-76.1l20.2-3.5V329c0 16.3-9 27-25.1 29.9l-28.6 5c-16.3 2.9-25.9-5.1-25.9-21.7v-15l20-3.5V340c0 4.6 1.8 6.1 6.3 5.3l25.9-4.6c5-.8 7.2-3.5 7.2-8.4zm232.3-124.1l-43 121.6-20.7 3.7 43-121.6 20.7-3.7zm-1.9 91.4l20.2-3.6v17.7l-20.2 3.6v-17.7zm68.5-12.1l20.2-3.6v17.7l-20.2 3.6v-17.7zm-34.3 6l20.2-3.6v17.7l-20.2 3.6v-17.7zM159.8 186.4l-39.2 6.9v43.3l-20.2 3.6v-101l20.2-3.6v39.3l39.2-6.9v-39.3l20.2-3.6V226l-20.2 3.6v-43.2zm108 24.1l-28.6 5c-16.3 2.9-25.9-5.1-25.9-21.7v-49.3c0-16.3 9-27 25.1-29.9l28.6-5c16.4-2.9 25.9 5.1 25.9 21.7v49.3c0 16.4-9 27.1-25.1 29.9zm78.3-32.1l48.6-8.6v18.4l-68.8 12.1V99.4l20.2-3.6v82.6zM449 145.2v33.5l-20.2 3.6v-33.5L402 112.1c-2.3-3.1-3-7.2-3-11V86.5l20-3.5v13.6c0 2.2.3 4.7 1.6 6.5l18.5 25.2 18.3-31.2c1.3-2.3 1.9-4.8 1.9-7.4V75.9l19.5-3.4v15.4c0 4.1-.9 8.1-3 11.7L449 145.2zM214.3 277.4v-7.3c0-15.9 9.8-25.3 25.1-28l27.8-4.9c15.2-2.7 25.5 3.8 25.5 19.8v13.6l-19.9 3.5v-14.9c0-4.4-2.6-4.7-6.5-4l-25 4.4c-4.3.8-7.3 2.5-7.3 7.2v6c0 3.3.2 4.3 3.6 4.6l38 3.2c11 .9 17.4 6.9 17.4 18.2V311c0 16-9.9 25.3-25.2 28l-29 5.1c-15.4 2.7-25.5-3.5-25.5-19.8v-12.6l19.9-3.5v13.9c0 4.4 2.6 4.7 6.5 4l26.2-4.6c4.3-.8 7.3-2.5 7.3-7.2V304c0-2.6-1-3.7-3.6-3.9l-38.8-3.3c-11.4-.9-16.5-8.5-16.5-19.4zM233.5 141v50.4c0 4.6 1.5 6.5 6.2 5.7l25.9-4.6c4.8-.8 7.1-3.4 7.1-8.3v-50.9c0-4.6-1.9-5.9-6.3-5.2l-25.9 4.6c-4.7.9-7 3.5-7 8.3z"/></g><g id="_x0D_2019"><path class="st1" d="M626.7 134l45.4-8.3V137l-58 10.6v-16c0-9.8 2.6-16.5 7.9-20.1 2.4-1.5 5.2-3 8.2-4.3 3.1-1.3 6.5-2.5 10.3-3.6l1.1-.2c.2 0 .3-.1.3-.1s.1-.1.3-.1c.4-.1.8-.3 1.3-.4.5-.1.9-.2 1.2-.3h-.1c.8-.3 1.5-.5 2.2-.6h-.2c5.1-1.4 8.6-2.9 10.4-4.6 1.7-1.6 2.6-5.4 2.6-11.6 0-6.8-.9-10.7-2.7-11.4-2.1-1-6.3-1-12.9.2-.9.2-1.9.3-2.9.5s-2 .4-3 .7c-.9.3-1.9.5-2.8.7-.9.2-1.9.5-2.9.9-2.7 1.1-4.3 2.6-4.7 4.5-.7 2.6-1.1 5.3-1.1 8.1V91l.1 5.5-12.5 2.3c0-8.6.7-15.4 2.2-20.4 1.7-5.6 7-9.8 15.7-12.5 4-1.2 8-2.2 11.9-2.9 9.7-1.8 16.7-1.6 21.1.6 4.9 2.4 7.3 9 7.3 19.8V86c0 .9 0 1.8-.1 2.7-.2 2.8-.6 5.5-1.4 8.1-.8 2.6-2.3 5.1-4.6 7.6-2.4 2.5-5.2 4.4-8.3 5.8-3.1 1.4-6.2 2.4-9.3 3.2-.6.2-1.3.4-2.1.5-.7.1-1.5.3-2.3.4-5 1.2-9.5 2.9-13.2 4.9-2.9 1.6-4.4 5.1-4.4 10.8v1.4c0 .5 0 .9.1 1.4v1.2zM690.9 93.4c0-2.9 0-5.7.1-8.5 0-2.8.1-5.5.3-8.3.3-4.4 1.4-8.6 3.4-12.6s4.8-7.2 8.4-9.6c1.8-1.2 3.5-2 5.2-2.5 1.7-.5 3.4-1 5.2-1.4l2-.4c.4-.1.7-.1 1-.2.3-.1.7-.2 1-.2l3.8-.7c5.2-.9 9.7-1.4 13.4-1.3 3.8.1 6.8.6 9.1 1.5 5 2.3 7.7 10 8.1 23v2.7c0 .9 0 1.7.1 2.6v5.3c0 2.5 0 5-.1 7.6 0 2.6-.1 5.2-.2 7.9-.3 7.7-2 13.9-5.3 18.6-3.2 4.7-8.4 8-15.6 9.8h.1c-1 .3-2 .6-3.1.8l-3.3.6-1.6.3-5.3 1.1c-6.6 1.1-12.4.9-17.4-.6-2.5-.9-4.6-2.7-6-5.5-1.5-2.8-2.4-6.4-2.9-10.8-.2-2.2-.3-4.4-.4-6.7 0-2.3-.1-4.6-.1-6.9v-5.6zm11.7 12.3c.1 3.9.7 7.2 2 10 1.1 2.2 3.5 3 7.2 2.6.9-.2 1.9-.3 2.8-.5 1-.1 1.9-.3 2.9-.4l1.4-.3 3.6-.6 3.6-.6c5-.9 8.7-2.4 11.1-4.6l-.1.1c2.1-2.1 3.2-6.7 3.2-13.8V72.9c0-6.8-1-11-2.9-12.5-1.8-1.6-5.8-1.8-12.2-.6l-7.4 1.4c-4.5.8-8.2 2.2-11.3 4.1-2.3 1.4-3.5 5.1-3.7 11.3-.1 1.3-.1 2.6-.2 3.8 0 1.2-.1 2.4-.1 3.8V92l.1 13.7zM805.5 34.1v78.7l-12.3 2.2V50.6c-2.8 3.6-5.6 7.2-8.5 10.9-2.9 3.7-5.7 7.2-8.3 10.5l-8.5-6.3 22.6-28.9 15-2.7zM836.8 83.8v4c0 3.1.6 5.1 1.9 6 1.3.9 3.4 1.2 6.4.8.5-.1.9-.1 1.4-.2.5 0 .9-.1 1.4-.2l8.5-1.5c6.2-1.1 10.3-2.6 12.2-4.4 1.8-1.5 2.7-5.2 2.7-11.1v-8.3c-.2.2-.5.4-.7.5-.2.1-.5.3-.8.5h.1c-1.5.9-3.1 1.7-4.9 2.3-1.8.6-3.5 1.2-5.2 1.7-1 .3-2.1.5-3.4.8-1.2.3-2.3.5-3.4.7-9.4 1.7-16.3 1.7-20.9 0-5-1.8-7.4-8.1-7.4-19.1 0-10.8 2.2-18.4 6.7-22.7 4.2-4 11.3-6.9 21.5-8.7 10.1-1.8 17.8-1.8 22.9.2 2.6 1.3 4.6 3.6 6.1 7.1 1.5 3.5 2.2 8.1 2.3 14l.1 13.3v14.3c0 10-2.2 17.3-6.5 21.8-4.2 4.1-11.4 7.1-21.3 8.9l-5 1c-3.5.6-6.7.9-9.7 1-3 .1-5.9 0-8.5-.3-6-.8-9-6-9-15.6 0-.3 0-.6-.1-.8 0-.2 0-.4.1-.8v-3l12.5-2.2zm.9-31.2c0 6.1.7 9.9 2.2 11.2v-.1c1.4 1.3 5.2 1.4 11.4.3l2.6-.5c1.1-.2 2.2-.4 3.2-.6s2.1-.4 3.2-.7c.9-.2 1.8-.5 2.9-.9 1.1-.4 2.1-.7 3.2-1.2l-.1.1c2.5-1.1 3.9-2.3 4.2-3.6.3-1 .5-2 .7-3.1.2-1.1.2-2.3.2-3.6 0-6.9-.8-11.4-2.5-13.5-1.3-1.8-5.6-2.1-12.7-.8l-2.9.5c-6.5 1.2-10.9 2.7-13.2 4.4-1.6 1.4-2.4 5.4-2.4 12.1z"/></g><g id="Moscow"><path class="st1" d="M658 172.1c2-.4 3 .5 3.1 2.5l1.8 40.1-7.8 1.4-1.5-36.9-1.2.2-7.5 30.3c-.4 1.8-1.5 2.9-3.3 3.2l-6.1 1.1c-1.8.3-2.9-.4-3.3-2l-7.6-27.5-1.1.2-1.4 37.4-7.7 1.4 1.6-40.7c.1-2 1.1-3.3 3.1-3.7l8.2-1.5c1.8-.3 2.8.4 3.2 2.1l6.2 22.4c.6 1.9.9 3.7 1.3 5.7l.9-.2c.4-2.1.8-4 1.3-6.2l6.2-24.6c.4-1.8 1.5-2.9 3.3-3.2l8.3-1.5zM707.8 184.8c0 17.3-4.7 23.4-18 25.8-13.3 2.4-17.9-2-17.9-19.3s4.7-23.4 17.9-25.8c13.3-2.5 18 2 18 19.3zm-27.6 5c0 12.1 2.3 15.4 9.6 14.1 7.4-1.3 9.7-5.5 9.7-17.6s-2.3-15.4-9.7-14.1c-7.3 1.3-9.6 5.5-9.6 17.6zM744.8 157l-.5 5.7c-3.6.5-8.6 1.3-12.9 2.1-5.3 1-7.3 1.6-7.3 6.3 0 3.8 1.5 4.5 4.9 4.9l8.4 1.1c6.9 1 9 4.7 9 11 0 9.9-4.3 12.9-15.5 15-2.7.5-7.8 1.3-14.1 1.2l.5-5.9c8.3-1.3 10.8-1.7 13.8-2.3 5.7-1 7.3-2.1 7.3-6.6 0-4-1.5-4.5-4.6-4.9l-8.8-1.2c-6.4-.9-8.8-4.5-8.8-11 0-10 4.5-12.5 15-14.4 4.1-.7 8.9-1.4 13.6-1zM784.8 149.6l-.8 6.1c-3.9.4-6.5.7-11.7 1.7-7.2 1.3-9.4 5.4-9.4 17.3s2.2 15.2 9.4 13.9c5.6-1 9-1.8 12.7-2.9l.7 5.8c-3.9 1.9-7.4 3-13.4 4.1-13.1 2.4-17.7-2.7-17.7-19.3s4.7-23.4 17.7-25.7c5.8-1.1 8.7-1.3 12.5-1zM828.3 162.8c0 17.3-4.7 23.4-18 25.8-13.3 2.4-17.9-2-17.9-19.3s4.7-23.4 17.9-25.8c13.3-2.4 18 2 18 19.3zm-27.6 5c0 12.1 2.3 15.4 9.6 14.1 7.4-1.3 9.7-5.5 9.7-17.6s-2.3-15.4-9.7-14.1c-7.4 1.4-9.6 5.5-9.6 17.6zM884.4 172.1c-.3 1.4-1.5 2.5-2.9 2.7l-8.3 1.5c-1.5.3-2.7-.4-2.9-1.7l-5.5-29.3c-.3-1.6-.6-3.3-.8-5l-1.3.2c-.3 1.7-.5 3.6-.8 5.3l-5.4 31.3c-.3 1.4-1.5 2.5-3 2.8l-8.2 1.5c-1.5.3-2.7-.4-2.9-1.7l-7.5-39.9 8.2-1.5 5.2 30.8c.3 1.8.5 3.6.7 5.8l1.3-.2c.3-2.1.6-4.1 1-6.1l5.4-30.2c.3-1.6 1.3-2.8 2.9-3.1l7.7-1.4c1.5-.3 2.6.5 2.8 2l5.4 28.3c.4 1.9.7 3.8.9 5.7l1.4-.3c.3-1.9.4-4.1.7-5.9l5.2-32.8 8.2-1.5-7.5 42.7z"/></g></svg>